<svg id="Layer_1" data-name="Layer 1" xmlns="http://www.w3.org/2000/svg" xmlns:xlink="http://www.w3.org/1999/xlink" viewBox="0 0 830.3 835.8">
  <defs>
    <style>
      .cls-1, .cls-2 {
        fill: #1d1d1b;
      }

      .cls-2, .cls-23, .cls-24, .cls-25, .cls-26, .cls-27, .cls-28 {
        fill-rule: evenodd;
      }

      .cls-3 {
        fill: url(#linear-gradient);
      }

      .cls-4 {
        fill: url(#linear-gradient-2);
      }

      .cls-5 {
        fill: url(#linear-gradient-3);
      }

      .cls-6 {
        fill: url(#linear-gradient-4);
      }

      .cls-7 {
        fill: url(#linear-gradient-5);
      }

      .cls-8 {
        fill: url(#linear-gradient-6);
      }

      .cls-9 {
        fill: url(#linear-gradient-7);
      }

      .cls-10 {
        fill: url(#linear-gradient-8);
      }

      .cls-11 {
        fill: url(#linear-gradient-9);
      }

      .cls-12 {
        fill: url(#linear-gradient-10);
      }

      .cls-13 {
        fill: url(#linear-gradient-11);
      }

      .cls-14 {
        fill: url(#linear-gradient-12);
      }

      .cls-15 {
        fill: url(#linear-gradient-13);
      }

      .cls-16 {
        fill: url(#linear-gradient-14);
      }

      .cls-17 {
        fill: url(#linear-gradient-15);
      }

      .cls-18 {
        fill: url(#linear-gradient-16);
      }

      .cls-19 {
        fill: url(#linear-gradient-17);
      }

      .cls-20 {
        fill: url(#linear-gradient-18);
      }

      .cls-21 {
        fill: url(#linear-gradient-19);
      }

      .cls-22 {
        fill: url(#linear-gradient-20);
      }

      .cls-23 {
        fill: #272c2b;
      }

      .cls-24 {
        fill: #0b0d0f;
      }

      .cls-25 {
        fill: #476965;
      }

      .cls-26 {
        fill: #22201e;
      }

      .cls-27 {
        fill: #b5ccc6;
      }

      .cls-28 {
        fill: #fefefe;
      }

      .cls-29 {
        fill: #040809;
      }

      .cls-30 {
        fill: url(#linear-gradient-21);
      }
    </style>
    <linearGradient id="linear-gradient" x1="22.6" y1="394.49" x2="587.66" y2="394.49" gradientUnits="userSpaceOnUse">
      <stop offset="0" stop-color="#f3efea"/>
      <stop offset="1" stop-color="#e0d6ca"/>
    </linearGradient>
    <linearGradient id="linear-gradient-2" x1="262.15" y1="683.74" x2="559.31" y2="683.74" xlink:href="#linear-gradient"/>
    <linearGradient id="linear-gradient-3" x1="222.18" y1="312.15" x2="801.59" y2="312.15" gradientUnits="userSpaceOnUse">
      <stop offset="0" stop-color="#6c493f"/>
      <stop offset="1" stop-color="#3e2f2a"/>
    </linearGradient>
    <linearGradient id="linear-gradient-4" x1="248.49" y1="730.58" x2="495.52" y2="730.58" xlink:href="#linear-gradient-3"/>
    <linearGradient id="linear-gradient-5" x1="522.66" y1="698.27" x2="670.16" y2="698.27" xlink:href="#linear-gradient"/>
    <linearGradient id="linear-gradient-6" x1="231.19" y1="389.65" x2="625.47" y2="389.65" xlink:href="#linear-gradient"/>
    <linearGradient id="linear-gradient-7" x1="262.15" y1="549.03" x2="362.58" y2="549.03" xlink:href="#linear-gradient"/>
    <linearGradient id="linear-gradient-8" x1="294.12" y1="163.88" x2="297.02" y2="163.88" xlink:href="#linear-gradient-3"/>
    <linearGradient id="linear-gradient-9" x1="437.42" y1="191.26" x2="462.15" y2="191.26" xlink:href="#linear-gradient-3"/>
    <linearGradient id="linear-gradient-10" x1="574.8" y1="143.7" x2="632.55" y2="143.7" xlink:href="#linear-gradient-3"/>
    <linearGradient id="linear-gradient-11" x1="177.36" y1="376.46" x2="230.92" y2="376.46" gradientTransform="translate(-217.95 384.49) rotate(-27.83)" xlink:href="#linear-gradient"/>
    <linearGradient id="linear-gradient-12" x1="248.37" y1="487.43" x2="301.93" y2="487.43" gradientTransform="matrix(1.02, -0.25, 0.24, 0.97, -165.86, 177.17)" xlink:href="#linear-gradient"/>
    <linearGradient id="linear-gradient-13" x1="238.18" y1="491.86" x2="281.33" y2="491.86" gradientTransform="matrix(0.87, -0.59, 0.62, 0.91, -321.39, 453.13)" xlink:href="#linear-gradient"/>
    <linearGradient id="linear-gradient-14" x1="281.29" y1="572.33" x2="324.45" y2="572.33" gradientTransform="matrix(0.98, -0.37, 0.39, 1.03, -247.23, 219.86)" xlink:href="#linear-gradient"/>
    <linearGradient id="linear-gradient-15" x1="499.41" y1="733.3" x2="547.54" y2="733.3" gradientTransform="matrix(0.98, 0.37, -0.3, 0.8, 214.11, -194.69)" xlink:href="#linear-gradient"/>
    <linearGradient id="linear-gradient-16" x1="521.93" y1="761.65" x2="564.83" y2="761.65" gradientTransform="matrix(1.03, 0.18, -0.15, 0.84, 72.5, -81.83)" xlink:href="#linear-gradient"/>
    <linearGradient id="linear-gradient-17" x1="654.15" y1="715.68" x2="697.59" y2="715.68" gradientTransform="matrix(1.05, -0.02, 0.01, 0.86, -53.21, 72.4)" xlink:href="#linear-gradient"/>
    <linearGradient id="linear-gradient-18" x1="667.02" y1="663.58" x2="714.68" y2="663.58" gradientTransform="matrix(0.64, -0.12, 0.16, 0.84, 190.04, 167.02)" xlink:href="#linear-gradient"/>
    <linearGradient id="linear-gradient-19" x1="646.76" y1="596.85" x2="697.71" y2="596.85" gradientTransform="matrix(0.65, -0.02, 0.03, 0.86, 266.44, 75.37)" xlink:href="#linear-gradient"/>
    <linearGradient id="linear-gradient-20" x1="499.01" y1="648.08" x2="572.44" y2="648.08" gradientTransform="matrix(0.64, 0.09, -0.12, 0.85, 366.89, -6.91)" xlink:href="#linear-gradient"/>
    <linearGradient id="linear-gradient-21" x1="563.56" y1="701.45" x2="633.17" y2="701.45" gradientTransform="translate(118.98 -121.72) rotate(9.55)" xlink:href="#linear-gradient"/>
  </defs>
  <g>
    <g>
      <path class="cls-1" d="M236.48,157.23s-5.35.67-8.19,1.27-15.26,2-19,2.9a51.3,51.3,0,0,0-8.55,2.46A22.13,22.13,0,0,0,197.1,166a20.31,20.31,0,0,1-2.09,1.61,27.63,27.63,0,0,1-2.93,1.73,75.26,75.26,0,0,1-8,4.13c-5.08,2.37-18.82,9.27-22,11.88s-25.76,16.86-33.77,26.23-32.65,32.54-41.07,41.89-14.86,16.79-22.84,24.46-17,14.72-20.28,18.63c-2.59,3.07-1.08,1.26-5.28,6.05-1.67,1.9-5.43,5.79-6.79,7.78a36.72,36.72,0,0,1-9.1,8.11c-6.2,3.39-4.62,2.8-12.67,7.49-4.07,2.37-9.44,1.62-1.86,13.41,5.53,8.62,16.69-.42,16,8C24,352.39,6,349.74,4.55,358.68s25.09,12.48,19.12,14.57c-17.28,6.06-4.84,22.85,0,25.27,3.81,1.9,9.34,3.05,8.57,7.26s-14.86,1.92-14.78,8c.13,9.06,12.05,6.76,16.64,11.67,4.16,4.44-8.67,10.43-5.38,14.4s25.41,5.77,18.05,11.92c-10.1,8.45-8.94,15.23,3.64,24.34,6,4.36-7.31,13.86,2.81,20.49s27.32-7.33,34.51.49,26.71,24.25,32.66,26.12,8.88,4.73,4.9,19-7.86,30.27-7.66,42.66-.12,36.47-.12,36.47l479.14,8.91L583.32,296.81l-249.4-133.2Z"/>
      <polygon class="cls-1" points="255.53 606.02 566.94 612.64 551.71 775.55 462.97 760.5 415.95 728.53 364.78 757.01 329.87 787.72 311.99 776.42 255.53 606.02"/>
      <path class="cls-1" d="M431.62,16.89s-3.63.38-5.56,2.57S409.37,37.6,395.47,44.78s-84.67,39.69-92,44.57-30.19,22.93-36.85,33-12.81,21.1-14.13,28.25-14.94,5.77-16.85,7-3.43,4.2-3.43,4.2L213.65,222.1l49.66,29.8,81.45,2.31,72.52,3.48,141,194v75l-13.22,71.38H749.75l-20.07-40.19s4.51-.39.19-9.32-6-12-1.63-13.91,24.81-14.61,32-23.32,24.42-29.15,29.23-70.7,10.86-82.78,14.39-92,4.52-15.18,8.29-22.34,9.64-16.64,8.6-21.33-.58-5.51-3.87-7.08S783.37,274.8,779,270.07s-54.63-59.57-58.76-62.26-19.15-16.74-28.92-21.08-23.93-10.34-42.81-10-24.36.77-26.92,1.25-9.53,2.56-10.43-4.86.47-13,3.94-13.64-21.48-20-21.48-20L578.2,114.73l1-3.88a7.29,7.29,0,0,0-2.07-4.69c-1.94-1.7-15.06-12.09-24.42-17.14s-44.9-22-54-26.79S470,48,465.94,43.8s-13.63-11.09-17.19-15.13-8-9.81-12-11S431.62,16.89,431.62,16.89Z"/>
      <path class="cls-1" d="M243.07,771.57s2.45,1.06,13.07,3.29,20,4.5,26.58,5.2a152.39,152.39,0,0,1,15.82,2.4c1.11.4,6.41,2.53,7.63,6s2.35,7.31,4.68,7.84,7.75,2.07,11.46.57,5-3.31,8.28-3.75,9.38-8.59,10.63-8.43a27.87,27.87,0,0,0,6.37-.17c1.36-.34,9.56-1.47,11.07-1.61s9.57-1.13,11-1.45A114.42,114.42,0,0,0,390.59,773c10.55-5.45,24-14.56,27.11-17.2s7.18-6,7.83-6.22a2,2,0,0,1,1.82,0,10.78,10.78,0,0,1,2.55,2.58c.53.89,2.91,3.9,3.6,4.76a65.17,65.17,0,0,0,7.67,7.49c2.62,1.94,9.09,6.26,11,7.31s9.4,4.7,11.08,5.35,9,3.11,11.18,3.64,7.25,1.59,9.78,1.91,8.83.85,10.65.88a6.94,6.94,0,0,1,5,2.56c1.17,1.49-2-18.62-2-18.62l-35.59-71.58-59.6-1.52-27.57,14.37-17.88,23.88-10.93,24.58-14.9,27.77S318.5,797.15,312.79,788s-12.54-29-12.54-29-3-18.08-12.77-25.7-44.14,21.85-44.14,21.85l-2.13,13.46Z"/>
      <path class="cls-1" d="M535.22,784a145.82,145.82,0,0,0,18-2c9-1.67,39.17-6.67,43.3-7.67s23-4.5,25.86-5,7.51-1.27,9.72-1.38,7.5-.53,10.12-.36,6.72.63,9,.95,9.69,1.43,10.84,1.15,3.88-.4,4.78-1.93,2.8-7.9,3.67-12.78,2.56-14.6,4-18.14,6.83-15.51,7.54-18.25,1.58-4.87.52-6.05-50.41-5.14-50.41-5.14l10.06-54.82-62.58-12.37-29.8,29.07L538,703l-9.44,53.15Z"/>
      <g>
        <path class="cls-1" d="M43.42,680.57a5.59,5.59,0,0,1-1-5.88c4.57-11.12,22.88-47.39,75.34-72.41,62.63-29.87,67-32,97.12-39.21S271.18,549,273.25,552.3s34.74,92.61,45.36,91.63,12.34-15.47,19-42.34,10.52-54.88,14.4-54.14,38.87,4.18,38.87,4.18S403.41,553,404,554.16s1.82,1.65-1.16,7.66-70.22,166.44-77.14,170.35-3.87-2.19-32.7,12c-2.67,1.31-53.79,29.64-69,42s-41.59,47.61-47.58,41.49C170.87,822,60.68,699.72,43.42,680.57Z"/>
        <path class="cls-1" d="M428.83,560a3.35,3.35,0,0,0-6.23-.18C407.75,593.48,352,725,355.16,725.26c3.66.3,131.49-1.21,128-11.2C480.18,705.45,440.1,590.92,428.83,560Z"/>
        <path class="cls-1" d="M443.48,569.33a5.38,5.38,0,0,1,5.9-7.39C475,566.49,544.5,578.16,576.71,577,616.62,575.59,702,567.6,716,561.16s40.38-22.23,42.08-33.62S771,515.87,773,521.73s33.87,108.41,28.73,114.75-58.86,57.13-83.47,66.43-59,20-91.56,18.75-125.5-6.46-129-19.12C494.82,691.92,456,599.12,443.48,569.33Z"/>
      </g>
      <path class="cls-1" d="M289,152.32l41.24,45.56-99.84,14s-15.17,2.37-18.48,3-8.32-35.91-8.83-37.39a25.56,25.56,0,0,1-1.44-7.35,5.15,5.15,0,0,1,2.3-4c1-.74,4.24-1.59,6.11-2C210.6,164.11,242.47,159.32,289,152.32Z"/>
      <path class="cls-1" d="M397.47,136l41.74,46.61-80.14,11.25h-.2l-42.48-45.67Z"/>
      <path class="cls-1" d="M496.68,121l42.95,47.47-74.55,10.42-39.6-47.19C449.44,128.16,473.53,124.5,496.68,121Z"/>
      <path class="cls-1" d="M667.55,150.53l-99.29,13.93L524.92,116.8,659.61,96.53Z"/>
      <path class="cls-1" d="M229.66,211.18s70.66-8.11,71.15-2.82-3.93,30.67-.51,31.3,22.4,2.53,22.93-2.8-1.47-29.91.76-30.11,78.64-3.36,78.42.06-5.48,33.76,1.79,33.5,13.63,2,16.1-7.37c2.57-9.68,0-26.45,5.15-27.09,8.16-1,67.82-1.93,68,1.4s-3,31.59.37,33.81,12.56,4.46,16.83-.42,2.71-7.08,4-14.57-1.22-19,3.22-19.32,57-.49,57.14,1.06-2.14,35.47-.21,36.3,18.34,1.77,20.27-1.58,1.39-35,5.08-34.74,47.34,1.36,48.15,2.66,2.53.31,4.53,8.42-.63,9.73,8.29,9.63c4.71-.06,9.6,5.78,10,10.74s-2,15.08-8.32,17.35-6.34.36-6.31,3.34.59,59.1,3.51,59.4,25.92-1.18,29.53,2.09,4.88,101.26.46,105.19-6.75,9.18-15.85,10-15.06-.9-15.26,4.52-.34,78.28-4.74,83-3.34,5.26-24.94,6.72-259.18.38-274.08,0-115.5.86-125.37.74-22.6,1.06-22.72-5.18,4.22-312.24,4.22-312.24Z"/>
      <polygon class="cls-1" points="223.08 515.67 636.28 515.67 636.28 261.67 229.66 264.31 223.08 515.67"/>
      <polygon class="cls-1" points="273.25 552.3 255.53 515.67 276.8 515.67 315.95 581.22 335.82 515.67 360.78 515.67 351.97 547.45 341.67 583.59 291 595.71 273.25 552.3"/>
      <g>
        <polygon class="cls-1" points="545.67 531.67 516.75 764.8 535.09 783.47 563.96 528.87 547.16 528.87 545.67 531.67"/>
        <path class="cls-1" d="M483.18,714.06l33.57,50.74,16,9.49,2.5,7.67a2.11,2.11,0,0,1-1.92,2.76l-33.44,1.34-28-70.24Z"/>
        <path class="cls-1" d="M355.29,723.48s-22.05,59.4-28,57.91-1.22-50.71-1.22-50.71-24.85-8.64-29.08-.2-3.37,14.4-3.22,27.57c.15,13.64,12.83,37.44,18.75,38.89,14,3.45,27.57-9.28,27.73-13.42s24.54-58.89,24.54-58.89Z"/>
      </g>
      <g>
        <path class="cls-1" d="M289,152.28l3-.46c-1,.15-2,.31-3,.5Z"/>
        <polygon class="cls-1" points="465.12 178.97 439.21 182.59 465.08 178.93 465.12 178.97"/>
        <polygon class="cls-1" points="583.18 108.14 618.25 157.44 643.7 153.89 607.46 104.39 583.18 108.14"/>
      </g>
      <g>
        <path class="cls-1" d="M148.7,616.8c6.12,4-3.89,15.58-18.91,25.62-8.69,5.82-22.6,12.56-29.32,2-2.92-4.58-.33-11.3,15.65-19.73S144.15,613.83,148.7,616.8Z"/>
        <path class="cls-1" d="M248.59,581.54c5.12,5.34-8.11,14.27-26,20.53-10.35,3.62-26.23,6.93-30.21-4.94-1.73-5.14,2.7-11.08,21.13-15.54S244.78,577.58,248.59,581.54Z"/>
        <path class="cls-1" d="M217.23,747.33c5.67,3-1.5,13.86-13.11,23.8-6.73,5.75-17.77,12.72-24.72,4.08-3-3.74-1.59-9.8,11-18.41S213,745.11,217.23,747.33Z"/>
        <path class="cls-1" d="M288.16,698.52c4.81,4.24-4.7,13.13-18.31,20.08-7.88,4-20.25,8.23-25-1.8-2.05-4.34.75-9.9,15-15.32S284.58,695.38,288.16,698.52Z"/>
        <path class="cls-1" d="M540.74,597.19c1.27,5.17-7.55,9.49-32.76,3.62-8.59-2-20.81-7-18.62-15.36.95-3.63,14.15-5.16,28.74-.62S539.79,593.34,540.74,597.19Z"/>
        <path class="cls-1" d="M547.89,671.57c2.18,4.86.84,10.16-25,8.92-8.81-.43-21.73-3.15-21.08-11.76.28-3.74,13-7.62,28.16-5.78S546.28,668,547.89,671.57Z"/>
        <path class="cls-1" d="M701.83,678.33c3.07,4.35-.22,12.19-25.83,15.93-8.73,1.28-19.87,1.34-20.88-7.24-.44-3.72,11.29-10,26.53-11.09S699.54,675.09,701.83,678.33Z"/>
        <path class="cls-1" d="M764.25,643.79c2.89,4.38,2.19,13.19-14.21,20-5.6,2.31-13,3.56-15.35-5.6-1-4,5.65-12,15.62-14.8S762.11,640.54,764.25,643.79Z"/>
        <path class="cls-1" d="M749.06,570.67c2.16,4.72-2.56,15.45-19.63,19.57-5.82,1.41-13.28,1.5-14.15-7.81-.38-4,7.34-10.85,17.52-12.09S747.46,567.17,749.06,570.67Z"/>
        <path class="cls-1" d="M669.25,591.9c.55,2.09,2.08,5.22-2.23,8.44-6.07,4.54-25,8.73-35.26,9.41-6,.4-13.34-.78-12.62-10.1.31-4,18.08-8.63,28.18-10.47C657.85,587.27,668.27,588.18,669.25,591.9Z"/>
      </g>
      <g>
        <g>
          <path class="cls-2" d="M381.38,304.5c-82,55-42.6,182.56,55.25,182.56S573.88,359.61,491.87,304.5a99.75,99.75,0,0,0-110.49,0Z"/>
          <path class="cls-2" d="M392.55,321.27c-65.39,43.89-34,145.65,44.08,145.65s109.52-101.7,44.08-145.65a79.6,79.6,0,0,0-88.16,0Z"/>
          <path class="cls-2" d="M397.74,329.05c-57.69,38.73-30,128.51,38.89,128.51s96.63-89.71,38.9-128.51a70.24,70.24,0,0,0-77.79,0Z"/>
          <path class="cls-2" d="M415.07,355c-32,21.49-16.65,71.3,21.56,71.3s53.61-49.77,21.58-71.3a39,39,0,0,0-43.14,0Z"/>
          <path class="cls-2" d="M412.08,374.32c-15.13-10.15-7.86-33.68,10.2-33.68s25.34,23.51,10.19,33.68a18.36,18.36,0,0,1-20.39,0Z"/>
          <path class="cls-2" d="M454.05,425.87a9,9,0,1,1,10,0,9.06,9.06,0,0,1-10,0Z"/>
        </g>
        <circle class="cls-1" cx="597.8" cy="294.54" r="22.66"/>
      </g>
      <polygon class="cls-1" points="286.09 531.22 300.19 554.82 315.95 581.22 331.21 530.88 286.09 531.22"/>
      <g>
        <path class="cls-1" d="M582.84,700.77s2,8.29,2.29,8.83c1.55,3.38,14.17,7.68,19.83,9.18s13.17,5.39,13.27,10.3c.11,5.52-.1,10.9-11.17,12.86a128.58,128.58,0,0,1-32.88,1.63c-10.12-.93-13.36,5.36-6.83,10s32.48,10.63,37.86,10c20.92-2.63,26.81-9,31.38-15.31,5.34-7.39,8.18-12.82,4-28.71-5.64-21.39-28.34-25.83-28.34-25.83Z"/>
        <path class="cls-1" d="M626.5,670.06l14.88-2.8S631,650.15,605.75,649.13s-40.72,21.21-41,35.2,16.13,25.84,21.23,28.21,15-15.68,15-15.68-16.54-7-15.4-14.23,11.91-21,21.75-19A91.63,91.63,0,0,1,626.5,670.06Z"/>
      </g>
    </g>
    <g>
      <path class="cls-3" d="M244,168.8s-5.1.65-7.81,1.22S221.59,172,218,172.78a49.73,49.73,0,0,0-8.16,2.35,21.43,21.43,0,0,0-3.45,2,19.45,19.45,0,0,1-2,1.53,27,27,0,0,1-2.79,1.65,70.8,70.8,0,0,1-7.63,3.95c-4.84,2.26-18,8.85-21,11.33s-24.57,16.09-32.22,25-31.15,31-39.19,40-14.18,16-21.79,23.34S63.54,298,60.39,301.71c-2.46,2.93-1,1.2-5,5.77-1.59,1.81-5.18,5.53-6.48,7.43a35.1,35.1,0,0,1-8.69,7.74c-5.91,3.23-4.41,2.67-12.08,7.15-3.88,2.26-9,1.54-1.78,12.79,5.28,8.22,15.92-.4,15.28,7.61C41.23,355,24.08,352.5,22.66,361s23.94,11.9,18.24,13.9c-16.49,5.78-4.62,21.8,0,24.11,3.64,1.82,8.91,2.91,8.18,6.93S34.9,407.81,35,413.56c.12,8.65,11.49,6.46,15.88,11.14,4,4.24-8.28,9.95-5.14,13.74S70,444,62.94,449.82c-9.64,8.06-8.53,14.53,3.48,23.22,5.75,4.16-7,13.23,2.68,19.55s26.06-7,32.93.47S127.51,516.2,133.19,518s8.48,4.51,4.68,18.17-7.5,28.88-7.31,40.7-.11,34.81-.11,34.81l457.21,8.5L574.93,302,337,174.9Z"/>
      <polygon class="cls-4" points="262.15 597.05 559.31 603.37 544.77 758.82 460.09 744.47 415.23 713.96 366.4 741.13 333.08 770.43 316.02 759.65 262.15 597.05"/>
      <path class="cls-5" d="M430.18,34.89s-3.46.36-5.31,2.45S409,54.65,395.68,61.5,314.89,99.38,307.87,104s-28.8,21.88-35.16,31.44-12.22,20.14-13.48,27-14.26,5.51-16.08,6.64a11.83,11.83,0,0,0-3.27,4l-17.7,57.62,47.4,28.44,77.72,2.21,69.19,3.32L551.07,449.82v71.54l-12.62,68.11h195.3L714.6,551.12s4.3-.38.18-8.89-5.67-11.43-1.55-13.28S736.9,515,743.74,506.7s23.31-27.81,27.89-67.47,10.36-79,13.74-87.79,4.3-14.48,7.9-21.31,9.21-15.88,8.21-20.36-.55-5.26-3.69-6.75-32-22-36.15-26.54-52.14-56.84-56.08-59.41S687.28,201.1,678,197s-22.83-9.86-40.85-9.58-23.24.73-25.68,1.18-9.09,2.45-9.95-4.63.44-12.42,3.76-13-20.5-19.1-20.5-19.1l-14.69-23.55,1-3.71a7.06,7.06,0,0,0-2-4.48c-1.86-1.62-14.37-11.53-23.31-16.35s-42.84-21-51.55-25.56-27.38-13.6-31.29-17.59-13-10.58-16.4-14.44-7.64-9.36-11.43-10.5S430.18,34.89,430.18,34.89Z"/>
      <path class="cls-6" d="M250.26,755s2.34,1,12.47,3.14,19.09,4.29,25.37,5a146.28,146.28,0,0,1,15.09,2.29c1.06.38,6.12,2.42,7.28,5.77s2.25,7,4.47,7.48,7.39,2,10.93.54,4.79-3.15,7.91-3.57,9-8.19,10.14-8a26.5,26.5,0,0,0,6.08-.17c1.3-.32,9.12-1.4,10.56-1.54s9.13-1.07,10.51-1.38a109,109,0,0,0,20-8.12A199.28,199.28,0,0,0,416.89,740c3-2.51,6.86-5.76,7.48-5.94a1.91,1.91,0,0,1,1.74,0,10.39,10.39,0,0,1,2.43,2.47c.5.84,2.77,3.72,3.43,4.54a63.17,63.17,0,0,0,7.32,7.14c2.5,1.86,8.67,6,10.48,7s9,4.48,10.58,5.11,8.59,3,10.66,3.47,6.92,1.52,9.34,1.82,8.42.81,10.16.85a6.58,6.58,0,0,1,4.77,2.44c1.11,1.42-1.93-17.78-1.93-17.78l-34-68.29-56.88-1.45-26.3,13.71-17.06,22.78-10.43,23.46L334.5,767.78s-12.26,11.66-17.71,3-12-27.66-12-27.66-2.86-17.26-12.18-24.53-42.12,20.85-42.12,20.85l-2,12.84Z"/>
      <path class="cls-7" d="M529,766.88a140.16,140.16,0,0,0,17.22-2c8.59-1.59,37.38-6.36,41.32-7.32s22-4.29,24.68-4.74,7.16-1.21,9.27-1.32,7.16-.51,9.66-.34,6.41.61,8.55.91,9.25,1.36,10.34,1.1,3.71-.38,4.57-1.84,2.67-7.55,3.49-12.21,2.45-13.92,3.86-17.3,6.51-14.8,7.2-17.42,1.5-4.64.49-5.77-48.1-4.9-48.1-4.9l9.6-52.32-59.72-11.79L543,657.4l-11.37,32.23-9,50.71Z"/>
      <g>
        <path class="cls-1" d="M59.74,668.19a5.31,5.31,0,0,1-1-5.61c4.35-10.61,21.83-45.22,71.89-69.09C190.43,565,194.59,563,223.34,556.07s53.74-13.44,55.71-10.28,33.16,88.37,43.29,87.44,11.78-14.76,18.1-40.4,10-52.37,13.73-51.66,37.09,4,37.09,4,12,1.3,12.6,2.41,1.73,1.58-1.11,7.3-67,158.83-73.62,162.56-3.69-2.09-31.2,11.46c-2.54,1.25-51.32,28.28-65.89,40s-39.68,45.43-45.4,39.59C181.36,803.13,76.21,686.47,59.74,668.19Z"/>
        <path class="cls-1" d="M427.52,553.11a3.21,3.21,0,0,0-5.95-.17c-14.16,32.14-67.4,157.65-64.35,157.9,3.49.28,125.48-1.16,122.16-10.69C476.52,691.93,438.27,582.64,427.52,553.11Z"/>
        <path class="cls-1" d="M441.5,562.05a5.13,5.13,0,0,1,5.63-7c24.46,4.34,90.76,15.47,121.5,14.37,38.08-1.35,119.56-9,132.94-15.12S740.1,533,741.71,522.17,754.05,511,756,516.62s32.31,103.46,27.41,109.5-56.17,54.52-79.65,63.39-56.33,19.08-87.37,17.89-119.75-6.16-123.07-18.24C490.49,679,453.43,590.47,441.5,562.05Z"/>
      </g>
      <path class="cls-1" d="M294.12,164.12l39.35,43.47L238.21,221s-14.48,2.26-17.63,2.9-8-34.27-8.43-35.68a24.23,24.23,0,0,1-1.37-7,4.87,4.87,0,0,1,2.19-3.78c.93-.71,4-1.53,5.83-1.9C219.28,175.37,249.68,170.8,294.12,164.12Z"/>
      <path class="cls-1" d="M397.59,148.53,437.42,193,361,203.74h-.19l-40.54-43.58C344,156.59,370.41,152.61,397.59,148.53Z"/>
      <path class="cls-1" d="M492.26,134.27l41,45.3-71.13,9.94-37.79-45C447.19,141.07,470.17,137.58,492.26,134.27Z"/>
      <path class="cls-1" d="M655.31,162.41,560.57,175.7l-41.36-45.47,128.53-19.35Z"/>
      <path class="cls-1" d="M237.46,220.29s67.43-7.74,67.9-2.7-3.75,29.27-.49,29.87,21.37,2.42,21.89-2.67-1.42-28.54.72-28.73,75-3.2,74.82.06-5.23,32.21,1.71,32,13,1.87,15.37-7c2.45-9.24,0-25.24,4.91-25.85,7.79-1,64.72-1.84,64.88,1.34s-2.86,30.14.35,32.26,12,4.26,16.06-.4,2.59-6.76,3.77-13.9-1.16-18.1,3.07-18.44,54.44-.47,54.53,1-2,33.84-.2,34.64,17.5,1.68,19.35-1.51,1.32-33.37,4.84-33.15,45.17,1.3,45.95,2.54,2.41.29,4.32,8-.6,9.28,7.91,9.19c4.5-.05,9.16,5.52,9.52,10.25s-1.94,14.39-7.94,16.55-6.06.36-6,3.2.56,56.39,3.35,56.68,24.73-1.13,28.18,2,4.66,96.63.44,100.37-6.45,8.76-15.13,9.56-14.37-.85-14.56,4.32-.32,74.7-4.52,79.24-3.19,5-23.8,6.41-247.32.36-261.54,0-110.21.82-119.63.71-21.56,1-21.68-4.94,4-297.95,4-297.95Z"/>
      <polygon class="cls-8" points="231.19 510.84 625.47 510.84 625.47 268.47 237.46 270.99 231.19 510.84"/>
      <polygon class="cls-9" points="279.05 545.79 262.15 510.84 282.44 510.84 319.81 573.39 338.77 510.84 362.58 510.84 354.17 541.17 344.34 575.65 296 587.22 279.05 545.79"/>
      <g>
        <polygon class="cls-1" points="539.01 526.1 511.41 748.57 528.92 766.38 556.46 523.44 540.43 523.44 539.01 526.1"/>
        <path class="cls-1" d="M479.38,700.15l32,48.42,15.22,9L529,765a2,2,0,0,1-1.83,2.63l-31.91,1.28-26.77-67Z"/>
        <path class="cls-1" d="M357.34,709.14s-21,56.68-26.72,55.26S329.45,716,329.45,716s-23.72-8.25-27.74-.19-3.22,13.74-3.08,26.3c.14,13,12.24,35.73,17.89,37.12,13.39,3.28,26.31-8.86,26.46-12.81s23.42-56.2,23.42-56.2Z"/>
      </g>
      <g>
        <path class="cls-10" d="M294.12,164.08l2.9-.44c-1,.15-1.93.3-2.9.48Z"/>
        <polygon class="cls-11" points="462.15 189.55 437.42 193 462.11 189.51 462.15 189.55"/>
        <polygon class="cls-12" points="574.8 121.96 608.27 169.01 632.55 165.62 597.97 118.38 574.8 121.96"/>
      </g>
      <g>
        <path class="cls-13" d="M160.21,607.34c5.84,3.81-3.71,14.86-18,24.45-8.3,5.55-21.57,12-28,1.92-2.78-4.36-.31-10.77,14.94-18.82S155.87,604.51,160.21,607.34Z"/>
        <path class="cls-14" d="M255.52,573.7c4.89,5.09-7.73,13.62-24.8,19.59-9.87,3.45-25,6.61-28.82-4.71-1.65-4.91,2.57-10.58,20.16-14.84S251.9,569.92,255.52,573.7Z"/>
        <path class="cls-15" d="M225.6,731.9c5.42,2.85-1.43,13.22-12.51,22.71-6.42,5.48-17,12.14-23.59,3.89-2.87-3.57-1.51-9.35,10.53-17.57S221.59,729.78,225.6,731.9Z"/>
        <path class="cls-16" d="M293.28,685.32c4.6,4-4.48,12.53-17.47,19.17-7.52,3.83-19.32,7.84-23.84-1.72-2-4.15.71-9.45,14.34-14.63S289.87,682.33,293.28,685.32Z"/>
        <path class="cls-17" d="M534.3,588.62c1.21,5-7.2,9.07-31.25,3.46-8.2-1.91-19.87-6.68-17.78-14.66.91-3.45,13.51-4.91,27.43-.59S533.4,585,534.3,588.62Z"/>
        <path class="cls-18" d="M541.13,659.6c2.08,4.65.8,9.7-23.86,8.51-8.41-.4-20.75-3-20.12-11.22.27-3.56,12.4-7.26,26.87-5.51S539.59,656.16,541.13,659.6Z"/>
        <path class="cls-19" d="M688,666.05c2.93,4.16-.21,11.63-24.65,15.21-8.33,1.21-19,1.27-19.92-6.92-.42-3.55,10.78-9.51,25.31-10.57S685.84,663,688,666.05Z"/>
        <path class="cls-20" d="M747.59,633.1c2.75,4.18,2.08,12.58-13.57,19-5.33,2.2-12.42,3.4-14.64-5.34-1-3.79,5.39-11.43,14.9-14.13S745.54,630,747.59,633.1Z"/>
        <path class="cls-21" d="M733.09,563.32c2.06,4.51-2.44,14.74-18.73,18.68-5.55,1.35-12.67,1.43-13.5-7.45-.37-3.85,7-10.36,16.72-11.55S731.56,560,733.09,563.32Z"/>
        <path class="cls-22" d="M656.94,583.58c.52,2,2,5-2.14,8.06-5.78,4.33-23.86,8.32-33.64,9-5.7.38-12.73-.74-12-9.63.3-3.86,17.25-8.24,26.88-10C646.06,579.16,656,580,656.94,583.58Z"/>
      </g>
      <g>
        <g>
          <path class="cls-23" d="M382.24,309.33C304,361.84,341.59,483.54,435,483.54s131-121.62,52.72-174.21a95.2,95.2,0,0,0-105.44,0Z"/>
          <path class="cls-24" d="M392.9,325.34c-62.4,41.88-32.45,139,42.06,139s104.51-97,42.06-139a75.94,75.94,0,0,0-84.12,0Z"/>
          <path class="cls-25" d="M397.85,332.77c-55.05,37-28.61,122.62,37.11,122.62s92.21-85.6,37.12-122.62a67,67,0,0,0-74.23,0Z"/>
          <path class="cls-26" d="M414.38,357.56c-30.55,20.51-15.88,68,20.58,68s51.16-47.49,20.59-68a37.19,37.19,0,0,0-41.17,0Z"/>
          <path class="cls-27" d="M411.53,376c-14.43-9.69-7.5-32.14,9.74-32.14S445.45,366.25,431,376a17.5,17.5,0,0,1-19.46,0Z"/>
          <path class="cls-28" d="M451.59,425.15a8.63,8.63,0,1,1,9.57,0,8.64,8.64,0,0,1-9.57,0Z"/>
        </g>
        <circle class="cls-29" cx="588.76" cy="299.83" r="21.62"/>
      </g>
      <polygon class="cls-1" points="291.31 525.68 304.76 548.2 319.81 573.39 334.37 525.35 291.31 525.68"/>
      <g>
        <path class="cls-1" d="M574.48,687.47s1.95,7.91,2.18,8.42c1.48,3.23,13.53,7.33,18.93,8.76s12.56,5.15,12.66,9.83c.1,5.27-.1,10.41-10.66,12.27a122.2,122.2,0,0,1-31.38,1.55c-9.65-.88-12.74,5.13-6.51,9.6s31,10.14,36.13,9.5c19.95-2.52,25.58-8.59,29.93-14.61,5.11-7.06,7.81-12.24,3.82-27.4-5.38-20.41-27.05-24.65-27.05-24.65Z"/>
        <path class="cls-30" d="M616.14,658.17l14.2-2.68s-9.92-16.32-34-17.3-38.86,20.24-39.11,33.59,15.39,24.65,20.26,26.92,14.27-15,14.27-15S576,677,577.06,670.16s11.37-20,20.76-18.15A87.17,87.17,0,0,1,616.14,658.17Z"/>
      </g>
    </g>
  </g>
</svg>
